# xmcd CD database file
#
# Track frame offsets:
#	182
#	14092
#	25677
#	40385
#	55060
#	69425
#	80527
#	85167
#	97752
#	112037
#	129725
#	159375
#	171132
#	179665
#
# Disc length: 2605 seconds
#
# Revision: 4
# Processed by: cddbd v1.5.2PL0 Copyright (c) Steve Scherf et al.
# Submitted via: CDex 1.51
#
DISCID=b30a2b0e
DTITLE=Boozoo Chavis - Hey Do Right!
DYEAR=1996
DGENRE=Folk
TTITLE0=Zydeco Cha Cha
TTITLE1=Bosco Stomp
TTITLE2=You're Gonna Look Like a Monkey
TTITLE3=What You Gonna Do
TTITLE4=I Got a Camel
TTITLE5=Mother's Blues
TTITLE6=Jump the Boogie
TTITLE7=Goin' to the Zydeco
TTITLE8=Pass Me a Dozen Eggs
TTITLE9=Hey Do Right
TTITLE10=Crying Waltz
TTITLE11=The Spotted Cow Died
TTITLE12=Message From the Master
TTITLE13=Zydeco Lady
EXTD=YEAR: 1996
EXTT0=
EXTT1=
EXTT2=
EXTT3=
EXTT4=
EXTT5=
EXTT6=
EXTT7=
EXTT8=
EXTT9=
EXTT10=
EXTT11=
EXTT12=
EXTT13=
PLAYORDER=
